
		<svg width="3282.223866430753" height="1128.895465723011" xmlns="http://www.w3.org/2000/svg" xmlns:xlink="http://www.w3.org/1999/xlink" version="1.1">
            <g transform="scale(14.111193321537636) translate(10, 10)">
				<defs id="SvgjsDefs1002"/><g id="main_text" rel="mainfill" name="main_text" xmlns:name="mainText_mainfill" fill="#000000" transform="translate(33.11716848041758, -7.979997634887688)"><path d="M32.2 20 l0 28 l-5.4 0 l0 -16.24 l-7.28 16.24 l-4.48 0 l-7.24 -16.16 l0 16.16 l-5.4 0 l0 -28 l5.2 0 l9.72 20.96 l9.68 -20.96 l5.2 0 z M53.52 27.16 l5.12 0 l-12.68 28.44 l-5.16 0 l3.76 -8.28 l-8.96 -20.16 l5.12 0 l6.4 14.56 z M79.48 24.76 l-12.04 0 l0 6.92 l9.92 0 l0 4.48 l-9.92 0 l0 11.84 l-5.4 0 l0 -28 l17.44 0 l0 4.76 z M88.16 19.72 l0 4.4 l-5.16 0 l0 -4.4 l5.16 0 z M88.16 27.2 l0 20.8 l-5.16 0 l0 -20.8 l5.16 0 z M108.16 27.2 l5.16 0 l0 20.8 c0 6.28 -6.04 8.24 -10.44 8.24 c-2.6 0 -4.6 -0.56 -5.76 -1.24 l0 -4.24 c1.16 0.68 3.12 1.2 5.76 1.2 c3.64 0 5.28 -1.96 5.28 -3.96 l0 -3 c-0.16 1.12 -2.36 3.4 -6.16 3.4 c-4.76 0 -10.32 -3.48 -10.32 -10.8 c0 -7.16 5.56 -10.76 10.32 -10.76 c3.8 0 6 2.4 6.16 3.08 l0 -2.72 z M102.68 43.84 c3 0 5.72 -2.08 5.72 -6.24 c0 -4.12 -2.72 -6.2 -5.72 -6.2 s-6 2.12 -6 6.2 c0 4.12 3 6.24 6 6.24 z M125.12 48.32 c-3.96 0 -7.88 -2.6 -7.88 -9.12 l0 -12 l5.12 0 l0 11.68 c0 3.6 1.56 4.96 3.96 4.96 c3.2 0 5.2 -3.04 5.64 -4.72 l0 -11.92 l5.16 0 l0 20.8 l-5.16 0 l0 -4.08 c-0.4 1.16 -2.68 4.4 -6.84 4.4 z M153.8 26.88 c0.52 0 0.96 0 1.44 0.08 l0 4.92 c-0.44 -0.08 -0.92 -0.08 -1.28 -0.08 c-3.88 0 -7.04 2.76 -7.44 6.96 l0 9.24 l-5.16 0 l0 -20.8 l5.16 0 l0 5.24 c0.88 -3.12 3.44 -5.56 7.28 -5.56 z M168.16 26.84 c3.8 0 6 2.4 6.16 3.08 l0 -2.72 l5.16 0 l0 20.8 l-5.16 0 l0 -3 c-0.16 1.12 -2.36 3.4 -6.16 3.4 c-4.76 0 -10.32 -3.48 -10.32 -10.8 c0 -7.16 5.56 -10.76 10.32 -10.76 z M168.84 31.4 c-3 0 -6 2.12 -6 6.2 c0 4.12 3 6.24 6 6.24 s5.72 -2.08 5.72 -6.24 c0 -4.12 -2.72 -6.2 -5.72 -6.2 z"/></g><g id="SvgjsG1009" rel="mainfill" name="symbol" xmlns:name="symbol_mainfill" fill="#000000" transform="translate(-23.868342402772527, -4.169548079654331) scale(0.09471940109712017)"><g xmlns="http://www.w3.org/2000/svg"><path fill="" opacity="1.00" d=" M 320.00 44.02 C 330.79 51.00 343.00 56.76 356.05 57.23 C 369.07 57.29 381.36 51.61 392.02 44.53 C 395.69 51.03 398.98 57.80 401.03 65.00 C 411.68 68.01 422.34 71.00 433.00 74.00 C 441.02 105.00 446.08 136.94 446.10 169.02 C 446.22 200.44 436.95 231.24 423.37 259.33 C 422.84 260.66 423.17 262.13 423.20 263.52 C 423.87 272.34 424.37 281.17 425.02 289.99 C 449.73 320.42 464.14 358.97 466.12 398.07 C 468.60 443.37 466.53 488.77 463.14 533.96 C 459.80 576.44 455.11 618.83 448.99 661.01 C 429.39 667.23 409.53 673.19 389.08 675.82 C 382.48 676.38 375.09 677.47 369.18 673.74 C 361.55 669.30 352.58 668.16 343.99 666.89 C 323.10 664.44 302.00 664.33 281.01 665.00 C 271.92 617.33 264.59 569.31 259.15 521.08 C 255.19 485.16 252.26 449.08 252.07 412.92 C 252.13 398.58 251.99 384.09 254.99 369.99 C 260.73 342.04 274.58 315.84 293.99 294.98 C 294.01 284.95 293.98 274.93 294.02 264.91 C 294.20 262.20 292.03 260.22 290.85 258.00 C 281.66 242.50 274.60 225.67 270.51 208.10 C 267.23 194.33 266.69 180.10 266.41 166.00 C 266.18 135.33 269.21 104.69 274.50 74.51 C 285.67 71.33 296.84 68.16 308.01 64.99 C 312.00 58.00 315.99 51.01 320.00 44.02 M 328.98 76.04 C 330.68 92.40 333.25 108.70 337.34 124.65 C 342.76 144.54 349.51 164.04 356.74 183.33 C 356.96 183.00 357.39 182.32 357.60 181.98 C 368.96 147.20 375.97 111.17 381.51 75.04 C 372.91 79.12 363.67 82.49 354.04 82.49 C 345.33 82.27 336.88 79.58 328.98 76.04 Z"/></g></g>
			</g>
		</svg>
    